<svg width="772" height="84" viewBox="0 0 772 84" fill="none" xmlns="http://www.w3.org/2000/svg">
<path d="M0.569237 31.8683V81.038H69.5164V31.931L35.0082 0.674613L0.569237 31.8683Z" stroke="#CC3752"/>
<path d="M88.3112 31.8683V81.038H157.258V31.931L122.75 0.674613L88.3112 31.8683Z" stroke="#CC3752"/>
<path d="M176.053 31.8683V81.038H245V31.931L210.492 0.674613L176.053 31.8683Z" stroke="#CC3752"/>
<path d="M526.569 33.8683V83.038H595.516V33.931L561.008 2.67461L526.569 33.8683Z" stroke="#CC3752"/>
<path d="M614.311 33.8683V83.038H683.258V33.931L648.75 2.67461L614.311 33.8683Z" stroke="#CC3752"/>
<path d="M702.053 33.8683V83.038H771V33.931L736.492 2.67461L702.053 33.8683Z" stroke="#CC3752"/>
<path d="M263.569 31.8683V81.038H332.516V31.931L298.008 0.674613L263.569 31.8683Z" stroke="#CC3752"/>
<path d="M351.311 31.8683V81.038H420.258V31.931L385.75 0.674613L351.311 31.8683Z" stroke="#CC3752"/>
<path d="M439.053 31.8683V81.038H508V31.931L473.492 0.674613L439.053 31.8683Z" stroke="#CC3752"/>
</svg>
