<svg width="410" height="76" viewBox="0 0 410 76" fill="none" xmlns="http://www.w3.org/2000/svg">
<path fill-rule="evenodd" clip-rule="evenodd" d="M292.279 1.45708C294.634 -0.485693 298.056 -0.485694 300.411 1.45708L329.621 25.5539C331.074 26.7525 331.911 28.5295 331.905 30.4011L331.851 45.426V69.718C331.851 73.1874 329.008 76 325.502 76H267.152C263.646 76 260.803 73.1874 260.803 69.718V30.364C260.803 28.5002 261.64 26.7327 263.086 25.5391L292.279 1.45708ZM296.345 25.4413L309.357 35.3645V55.7537H283.297V35.3645L296.345 25.4413Z" fill="#FF7A00"/>
<path fill-rule="evenodd" clip-rule="evenodd" d="M105.035 76C128.612 76 146.38 59.6498 146.38 38C146.38 16.2374 128.612 6.86361e-08 105.035 6.86361e-08C81.4584 6.86361e-08 63.6904 16.2374 63.6904 38C63.6904 59.7626 81.4584 76 105.035 76ZM105.035 55.7033C95.0123 55.7033 86.9256 48.3739 86.9256 38C86.9256 27.6261 95.0123 20.2967 105.035 20.2967C115.058 20.2967 123.145 27.6261 123.145 38C123.145 48.3739 115.058 55.7033 105.035 55.7033Z" fill="#FF7A00"/>
<path d="M5.8088 74.6469H44.9897C48.7484 74.6469 50.7985 72.6172 50.7985 68.8961V62.2433C50.7985 58.5223 48.7484 56.4926 44.9897 56.4926H22.6657V7.10386C22.6657 3.38279 20.6155 1.35312 16.8569 1.35312H5.8088C2.05016 1.35312 0 3.38279 0 7.10386V68.8961C0 72.6172 2.05016 74.6469 5.8088 74.6469Z" fill="#FF7A00"/>
<path d="M234.439 68.8961L211.773 33.8279L233.641 7.10386C236.489 3.72107 234.439 1.35312 230.566 1.35312H215.532C211.747 1.35312 209.92 3.61511 207.287 6.87578L207.103 7.10386L191.043 27.1751V7.10386C191.043 3.38279 188.993 1.35312 185.235 1.35312H174.187C170.428 1.35312 168.378 3.38279 168.378 7.10386V68.8961C168.378 72.6172 170.428 74.6469 174.187 74.6469H185.235C188.993 74.6469 191.043 72.6172 191.043 68.8961V52.2077L195.372 47.2463L208.47 68.8961C210.748 72.6172 212.798 74.6469 216.784 74.6469H231.363C235.236 74.6469 236.83 72.6172 234.439 68.8961Z" fill="#FF7A00"/>
<path d="M365.01 74.6469H404.191C407.95 74.6469 410 72.6172 410 68.8961V62.2433C410 58.5223 407.95 56.4926 404.191 56.4926H381.867V7.10386C381.867 3.38279 379.817 1.35312 376.058 1.35312H365.01C361.252 1.35312 359.201 3.38279 359.201 7.10386V68.8961C359.201 72.6172 361.252 74.6469 365.01 74.6469Z" fill="#FF7A00"/>
</svg>
